%
M48
M72
T01C0.03100
T02C0.03200
T03C0.03600
T04C0.04000
T05C0.07900
T06C0.11800
T07C0.13000
%
T01
X26250Y52969
X26250Y77969
X36250Y77969
X46250Y77969
X56250Y77969
X66250Y77969
X76250Y77969
X86250Y77969
X96250Y77969
X106250Y77969
X116250Y77969
X126250Y77969
X136250Y77969
X146250Y77969
X156250Y77969
X166250Y77969
X196250Y77969
X216250Y92969
X231250Y67969
X211250Y57969
X216250Y37969
X221250Y132969
X221250Y157969
X211250Y177969
X201250Y187969
X181250Y177969
X191250Y167969
X166250Y137969
X156250Y137969
X146250Y137969
X136250Y137969
X126250Y137969
X116250Y137969
X106250Y137969
X96250Y137969
X86250Y137969
X76250Y137969
X66250Y137969
X56250Y137969
X46250Y137969
X36250Y137969
X26250Y137969
T02
X76250Y182969
X86250Y182969
X101250Y182969
X111250Y182969
X126250Y182969
X136250Y182969
X151250Y157969
X161250Y157969
T03
X246250Y167969
X256250Y167969
X256250Y177969
X246250Y177969
X246250Y187969
X256250Y187969
T04
X246250Y89569
X256250Y84169
X246250Y78769
X256250Y73369
X246250Y67969
X256250Y62569
X246250Y57169
X256250Y51769
X246250Y46369
T05
X107050Y22969
X91250Y22969
X75450Y22969
T06
X21250Y12969
X211250Y12969
X211250Y207969
X21250Y207969
T07
X251250Y117269
X251250Y18669
M30
